<?xml version="1.0" encoding="iso-8859-1"?>
<!-- Generator: Adobe Illustrator 18.0.0, SVG Export Plug-In . SVG Version: 6.00 Build 0)  -->
<!DOCTYPE svg PUBLIC "-//W3C//DTD SVG 1.1//EN" "http://www.w3.org/Graphics/SVG/1.1/DTD/svg11.dtd">
<svg version="1.1" id="Capa_1" xmlns="http://www.w3.org/2000/svg" xmlns:xlink="http://www.w3.org/1999/xlink" x="0px" y="0px"
	 viewBox="0 0 246.731 246.731" style="enable-background:new 0 0 246.731 246.731;" xml:space="preserve">
<path d="M239.331,187.026c-1.271-2.538-3.867-4.141-6.706-4.141H117.227v-25.316H218.84c0.006,0,0.012-0.001,0.02,0
	c4.142,0,7.5-3.358,7.5-7.5c0-1.891-0.7-3.618-1.854-4.938L115.683,2.942c-1.954-2.553-5.318-3.577-8.362-2.545
	c-3.045,1.031-5.094,3.889-5.094,7.103v33.101l-80.292,104.91c-1.734,2.266-2.032,5.321-0.768,7.879
	c1.264,2.559,3.871,4.179,6.725,4.179h74.336v25.316H14.106c-2.884,0-5.512,1.653-6.76,4.253c-1.249,2.599-0.897,5.684,0.906,7.935
	l39.107,48.846c1.424,1.778,3.578,2.813,5.855,2.813h142.889c2.364,0,4.591-1.115,6.006-3.009l36.523-48.846
	C240.332,192.603,240.602,189.564,239.331,187.026z M117.227,29.64l86.429,112.929h-86.429V29.64z M102.227,65.282v77.287H43.075
	L102.227,65.282z M192.345,231.731H56.816l-27.098-33.846h187.935L192.345,231.731z"/>
<g>
</g>
<g>
</g>
<g>
</g>
<g>
</g>
<g>
</g>
<g>
</g>
<g>
</g>
<g>
</g>
<g>
</g>
<g>
</g>
<g>
</g>
<g>
</g>
<g>
</g>
<g>
</g>
<g>
</g>
</svg>
